<?xml version="1.0" encoding="utf-8"?>
<!-- Generator: Adobe Illustrator 20.1.0, SVG Export Plug-In . SVG Version: 6.00 Build 0)  -->
<svg version="1.1" id="Слой_1" xmlns="http://www.w3.org/2000/svg" xmlns:xlink="http://www.w3.org/1999/xlink" x="0px" y="0px"
	 viewBox="0 0 42 42" enable-background="new 0 0 42 42" xml:space="preserve">
<path fill="#020203" d="M39.8,9.2c-1.3,0.6-2.8,1-4.3,1.2c1.5-0.9,2.7-2.4,3.3-4.1c-1.4,0.9-3,1.5-4.7,1.8c-1.4-1.5-3.3-2.4-5.4-2.4
	c-4.1,0-7.4,3.3-7.4,7.5c0,0.6,0.1,1.2,0.2,1.7C15.2,14.6,9.7,11.6,6,7.1c-0.6,1.1-1,2.4-1,3.7c0,2.6,1.3,4.9,3.3,6.2
	C7.1,17,6,16.7,5,16.1c0,0,0,0.1,0,0.1c0,3.6,2.6,6.6,6,7.3c-0.6,0.2-1.3,0.3-2,0.3c-0.5,0-0.9,0-1.4-0.1c0.9,3,3.7,5.1,7,5.2
	C12,30.8,8.8,32,5.3,32c-0.6,0-1.2,0-1.8-0.1c3.3,2.1,7.2,3.4,11.4,3.4c13.7,0,21.2-11.4,21.2-21.2c0-0.3,0-0.6,0-1
	C37.5,12,38.8,10.7,39.8,9.2z"/>
</svg>
