<?xml version="1.0" encoding="utf-8"?>
<!-- Generator: Adobe Illustrator 20.1.0, SVG Export Plug-In . SVG Version: 6.00 Build 0)  -->
<svg version="1.1" id="Слой_1" xmlns="http://www.w3.org/2000/svg" xmlns:xlink="http://www.w3.org/1999/xlink" x="0px" y="0px"
	 viewBox="0 0 42 42" enable-background="new 0 0 42 42" xml:space="preserve">
<path fill="#020203" d="M19.8,22.7l-1.6-1.2l0,0c-0.5-0.4-0.9-0.7-0.9-1.3c0-0.6,0.4-1,1-1.5l0,0c1.7-1.3,3.9-3,3.9-6.5
	c0-2.4-1-3.9-2-5h1.1l5.3-2.9H14.9c-2.2,0-5.5,0.3-8.3,2.5l0,0c-1.9,1.6-3,3.9-3,6.2c0,1.9,0.8,3.7,2.1,5c1.9,1.9,4.2,2.3,5.9,2.3
	c0.1,0,0.3,0,0.4,0c-0.1,0.3-0.1,0.6-0.1,0.9c0,1,0.3,1.7,0.7,2.3c-2.1,0.2-5.1,0.6-7.4,1.9c-3.4,2-3.7,4.9-3.7,5.7
	c0,3.3,3.1,6.7,10.1,6.7c8,0,12.2-4.4,12.2-8.7C23.7,25.9,21.7,24.3,19.8,22.7z M8.8,10.8c0-1.2,0.3-2.1,0.8-2.7
	C10.2,7.5,11.2,7,12.2,7c1.7,0,2.9,1.3,3.5,2.4c0.8,1.4,1.3,3.2,1.3,4.7c0,0.4,0,1.7-0.9,2.6c-0.6,0.6-1.6,1-2.5,1
	c-1.8,0-2.9-1.3-3.6-2.4C9.1,13.8,8.8,12,8.8,10.8z M19.4,30.8c0,2.4-2.2,3.9-5.8,3.9c-4.2,0-7-1.8-7-4.5c0-2.3,1.9-3.2,3.3-3.7
	c1.7-0.5,3.9-0.6,4.4-0.6c0.3,0,0.5,0,0.8,0C18.3,28.1,19.4,29,19.4,30.8z"/>
<polygon fill="#020203" points="33.8,11 33.8,4.2 30.8,4.2 30.8,11 23.8,11 23.8,14 30.8,14 30.8,21.1 33.8,21.1 33.8,14 40.6,14 
	40.6,11 "/>
</svg>
