<?xml version="1.0" encoding="utf-8"?>
<!-- Generator: Adobe Illustrator 20.1.0, SVG Export Plug-In . SVG Version: 6.00 Build 0)  -->
<svg version="1.1" id="Capa_1" xmlns="http://www.w3.org/2000/svg" xmlns:xlink="http://www.w3.org/1999/xlink" x="0px" y="0px"
	 viewBox="0 0 24 24" style="enable-background:new 0 0 24 24;" xml:space="preserve">
<g>
	<g>
		<path d="M12,0C5.4,0,0,5.4,0,12s5.4,12,12,12s12-5.4,12-12S18.6,0,12,0z M12,21.4c-5.2,0-9.4-4.2-9.4-9.4S6.8,2.6,12,2.6
			s9.4,4.2,9.4,9.4S17.2,21.4,12,21.4z"/>
		<path d="M18.3,11.6h-5.4V5.1c0-0.5-0.4-1-1-1c-0.5,0-1,0.4-1,1v7.5c0,0.5,0.4,1,1,1h6.4c0.5,0,1-0.4,1-1
			C19.2,12.1,18.8,11.6,18.3,11.6z"/>
	</g>
</g>
</svg>
