<?xml version="1.0" encoding="utf-8"?>
<!-- Generator: Adobe Illustrator 20.1.0, SVG Export Plug-In . SVG Version: 6.00 Build 0)  -->
<svg version="1.1" id="Capa_1" xmlns="http://www.w3.org/2000/svg" xmlns:xlink="http://www.w3.org/1999/xlink" x="0px" y="0px"
	 viewBox="0 0 24 20" style="enable-background:new 0 0 24 20;" xml:space="preserve">
<path d="M21.6-2H2.4C1.1-2,0-0.9,0,0.4v13c0,1.3,1.1,2.4,2.4,2.4h11.4l3.9,4.2c0.1,0,0.2,0,0.3,0h0.1c0.2-0.1,0.3-0.2,0.3-0.4v-3.9
	h3.2c1.3,0,2.4-1.1,2.4-2.4v-13C24-0.9,22.9-2,21.6-2z M4.8,3.1h6c0.2,0,0.4,0.2,0.4,0.4S11,3.9,10.8,3.9h-6c-0.2,0-0.4-0.2-0.4-0.4
	S4.6,3.1,4.8,3.1z M18.4,10.2H4.8c-0.2,0-0.4-0.2-0.4-0.4s0.2-0.4,0.4-0.4h13.6c0.2,0,0.4,0.2,0.4,0.4C18.8,10,18.6,10.2,18.4,10.2z
	 M18.4,7H4.8C4.6,7,4.4,6.9,4.4,6.6c0-0.2,0.2-0.4,0.4-0.4h13.6c0.2,0,0.4,0.2,0.4,0.4C18.8,6.9,18.6,7,18.4,7z"/>
</svg>
