<?xml version="1.0" encoding="utf-8"?>
<!-- Generator: Adobe Illustrator 20.1.0, SVG Export Plug-In . SVG Version: 6.00 Build 0)  -->
<svg version="1.1" id="Capa_1" xmlns="http://www.w3.org/2000/svg" xmlns:xlink="http://www.w3.org/1999/xlink" x="0px" y="0px"
	 viewBox="0 0 25 23" style="enable-background:new 0 0 25 23;" xml:space="preserve">
<g>
	<g id="XMLID_1_">
		<g>
			<path d="M22.6,20.7c0,0.6-0.1,1.1-0.5,1.6c-0.4,0.4-0.9,0.7-1.4,0.7c-0.1,0-0.1,0-0.2,0c-1.1,0-2-0.9-2.1-2
				c-0.1-1.2,0.8-2.2,1.9-2.3C21.5,18.7,22.5,19.6,22.6,20.7z"/>
			<path d="M7.4,18.7c1.2,0,2.1,1,2.1,2.1C9.5,22,8.5,23,7.4,23s-2.1-1-2.1-2.1C5.3,19.7,6.2,18.7,7.4,18.7z"/>
			<path d="M24.1,4.7c0.3,0,0.6,0.2,0.8,0.4C25,5.4,25,5.7,24.9,6l-4.2,9.8c-0.2,0.3-0.5,0.6-0.9,0.6H8.2c-0.4,0-0.8-0.3-0.9-0.7
				L3.6,1.9H0.9C0.4,1.9,0,1.5,0,0.9C0,0.4,0.4,0,0.9,0h3.3c0.4,0,0.8,0.3,0.9,0.7l3.8,13.8h10.3l3.4-8H11.2c-0.5,0-0.9-0.4-0.9-0.9
				s0.4-0.9,0.9-0.9H24.1z"/>
		</g>
		<g>
		</g>
	</g>
</g>
</svg>
