<?xml version="1.0" encoding="utf-8"?>
<!-- Generator: Adobe Illustrator 20.1.0, SVG Export Plug-In . SVG Version: 6.00 Build 0)  -->
<svg  fill="#12a4dd" xmlns="http://www.w3.org/2000/svg" viewBox="0 0 50 40.7">
<path d="M16.7,33.3c0-1-0.4-1.9-1.1-2.6C14.8,30,14,29.6,13,29.6s-1.9,0.4-2.6,1.1s-1.1,1.6-1.1,2.6c0,1,0.4,1.9,1.1,2.6
	S12,37,13,37s1.9-0.4,2.6-1.1C16.3,35.2,16.7,34.3,16.7,33.3z M5.6,18.5h11.1v-7.4h-4.6c-0.3,0-0.5,0.1-0.6,0.3L5.8,17
	c-0.2,0.2-0.3,0.4-0.3,0.6V18.5z M42.6,33.3c0-1-0.4-1.9-1.1-2.6c-0.7-0.7-1.6-1.1-2.6-1.1c-1,0-1.9,0.4-2.6,1.1
	c-0.7,0.7-1.1,1.6-1.1,2.6c0,1,0.4,1.9,1.1,2.6c0.7,0.7,1.6,1.1,2.6,1.1c1,0,1.9-0.4,2.6-1.1C42.2,35.2,42.6,34.3,42.6,33.3z
	 M50,1.9v29.6c0,0.3,0,0.5-0.1,0.8c-0.1,0.2-0.2,0.4-0.4,0.5S49.2,33,49,33.1c-0.1,0.1-0.4,0.1-0.7,0.2c-0.3,0-0.5,0-0.7,0.1
	s-0.4,0-0.7,0s-0.6,0-0.7,0c0,2-0.7,3.8-2.2,5.2c-1.4,1.4-3.2,2.2-5.2,2.2s-3.8-0.7-5.2-2.2c-1.4-1.4-2.2-3.2-2.2-5.2H20.4
	c0,2-0.7,3.8-2.2,5.2C16.8,40,15,40.7,13,40.7S9.2,40,7.7,38.6s-2.2-3.2-2.2-5.2H3.7c-0.1,0-0.3,0-0.7,0s-0.6,0-0.7,0
	s-0.3,0-0.7-0.1c-0.3,0-0.5-0.1-0.7-0.2c-0.1-0.1-0.3-0.2-0.5-0.3s-0.3-0.3-0.4-0.5C0,32,0,31.8,0,31.5c0-0.5,0.2-0.9,0.5-1.3
	s0.8-0.5,1.3-0.5v-9.3c0-0.2,0-0.5,0-1c0-0.5,0-0.9,0-1.1c0-0.2,0-0.5,0.1-1s0.1-0.8,0.2-1.1c0.1-0.3,0.2-0.6,0.4-0.9
	c0.2-0.3,0.4-0.6,0.7-0.9l5.7-5.7C9.2,8.3,9.7,8,10.3,7.8C11,7.5,11.5,7.4,12,7.4h4.6V1.9c0-0.5,0.2-0.9,0.5-1.3S18,0,18.5,0h29.6
	c0.5,0,0.9,0.2,1.3,0.5C49.8,0.9,50,1.4,50,1.9z"/>
</svg>
