<?xml version="1.0" encoding="utf-8"?>
<!-- Generator: Adobe Illustrator 20.1.0, SVG Export Plug-In . SVG Version: 6.00 Build 0)  -->
<svg version="1.1" id="Capa_1" xmlns="http://www.w3.org/2000/svg" xmlns:xlink="http://www.w3.org/1999/xlink" x="0px" y="0px"
	 viewBox="0 0 50 46" style="enable-background:new 0 0 50 46;" xml:space="preserve">
<g>
	<g>
		<path d="M24.1,45.7c0.3,0.2,0.7,0.3,1.1,0.3c0.4,0,0.7-0.1,1.1-0.3c0.9-0.6,21.2-13.9,23.5-27.5c1.2-7-1-11.4-3-13.7
			C44.3,1.7,40.8,0,37.3,0C36.1,0,35,0.2,34,0.6c-4.9,1.8-8.2,5-10,7.2c-1.8-2.2-4.8-5.3-8.4-6.5c-1.1-0.4-2.3-0.6-3.6-0.6
			C8.7,0.7,5.6,2,3.5,4.4c-1.9,2.1-4,6-3.4,12.9C1.5,30.9,23.2,45.1,24.1,45.7z M6.3,7c2-2.1,4.4-2.5,5.7-2.5c0.8,0,1.6,0.1,2.4,0.4
			c4.5,1.5,8,7.1,8.1,7.2c0.4,0.6,1,0.9,1.7,0.9c0.7,0,1.3-0.4,1.6-1c0-0.1,3.2-5.5,9.6-7.9c0.5-0.2,1.2-0.3,1.9-0.3
			c2.4,0,4.8,1.2,6.4,3.1c2.2,2.6,2.9,6.3,2.1,10.7c-0.8,4.8-4.8,10.7-11.5,16.8c-3.8,3.5-7.5,6.2-9.2,7.4c-1.8-1.2-5.8-4.1-9.8-7.8
			C8.4,27.6,4.4,21.7,4,16.9C3.6,12.6,4.4,9.1,6.3,7z"/>
	</g>
</g>
</svg>
