<?xml version="1.0" encoding="utf-8"?>
<!-- Generator: Adobe Illustrator 20.1.0, SVG Export Plug-In . SVG Version: 6.00 Build 0)  -->
<svg version="1.1" id="Capa_1" xmlns="http://www.w3.org/2000/svg" xmlns:xlink="http://www.w3.org/1999/xlink" x="0px" y="0px"
	 viewBox="0 0 50 36" style="enable-background:new 0 0 50 36;" xml:space="preserve">
<g>
	<g>
		<path d="M2.1,4.2h45.7c1.2,0,2.1-1,2.1-2.1S49,0,47.9,0H2.1C1,0,0,1,0,2.1S1,4.2,2.1,4.2z"/>
		<path d="M2.1,20.1h45.7c1.2,0,2.1-1,2.1-2.1s-1-2.1-2.1-2.1H2.1C1,15.9,0,16.8,0,18S1,20.1,2.1,20.1z"/>
		<path d="M2.1,36h45.7c1.2,0,2.1-1,2.1-2.1c0-1.2-1-2.1-2.1-2.1H2.1c-1.2,0-2.1,1-2.1,2.1C0,35,1,36,2.1,36z"/>
	</g>
</g>
</svg>
