<?xml version="1.0" encoding="utf-8"?>
<!-- Generator: Adobe Illustrator 20.1.0, SVG Export Plug-In . SVG Version: 6.00 Build 0)  -->
<svg version="1.1" id="Layer_1" xmlns="http://www.w3.org/2000/svg" xmlns:xlink="http://www.w3.org/1999/xlink" x="0px" y="0px"
	 viewBox="0 0 25 25" style="enable-background:new 0 0 25 25;" xml:space="preserve">
<g>
	<g>
		<path d="M22.1,14.8C22.1,14.8,22.1,14.8,22.1,14.8c-1-0.1-2-0.4-3-0.7c-1.2-0.5-2.6-0.2-3.5,0.8c0,0,0,0,0,0l-0.9,0.9
			c-2.2-1.4-4-3.2-5.4-5.4l0.9-0.9c0,0,0,0,0,0c0.9-0.9,1.2-2.3,0.8-3.5c-0.4-1-0.6-2-0.7-3c0,0,0,0,0,0C9.9,1.2,8.5,0,6.8,0H3.4
			C3.3,0,3.2,0,3.1,0C1.2,0.2-0.2,1.8,0,3.7c0,0,0,0,0,0C0.4,7.4,1.7,11,3.7,14.1c1.8,2.9,4.3,5.4,7.2,7.2c3.1,2,6.7,3.3,10.4,3.7
			c0,0,0,0,0,0c0.1,0,0.2,0,0.3,0c0,0,0,0,0,0c1.9,0,3.4-1.5,3.3-3.4v-3.4C25,16.5,23.8,15.1,22.1,14.8z M22.9,18.2v3.4
			c0,0.7-0.6,1.2-1.2,1.2c0,0-0.1,0-0.1,0c-3.4-0.4-6.6-1.5-9.5-3.4c0,0,0,0,0,0c-2.6-1.7-4.9-3.9-6.6-6.6c0,0,0,0,0,0
			c-1.8-2.8-3-6.1-3.4-9.5C2.1,2.8,2.6,2.2,3.2,2.1c0,0,0.1,0,0.1,0h3.5c0,0,0,0,0,0c0.6,0,1.1,0.5,1.2,1.1c0.2,1.2,0.4,2.3,0.9,3.5
			c0.2,0.5,0.1,1-0.3,1.3L7.2,9.4C6.9,9.7,6.8,10.2,7,10.7c1.7,3,4.3,5.6,7.3,7.3c0.4,0.2,0.9,0.2,1.3-0.2l1.5-1.5
			c0.3-0.3,0.9-0.4,1.3-0.3c1.1,0.4,2.3,0.7,3.5,0.9C22.4,17,22.9,17.5,22.9,18.2C22.9,18.2,22.9,18.2,22.9,18.2z"/>
	</g>
</g>
</svg>
