<?xml version="1.0" encoding="utf-8"?>
<!-- Generator: Adobe Illustrator 20.1.0, SVG Export Plug-In . SVG Version: 6.00 Build 0)  -->
<svg version="1.1" id="Слой_1" xmlns="http://www.w3.org/2000/svg" xmlns:xlink="http://www.w3.org/1999/xlink" x="0px" y="0px"
	 viewBox="0 0 25 25" style="enable-background:new 0 0 25 25;" xml:space="preserve">
<g>
	<path d="M24.7,23.2l-6-6c1.5-1.8,2.4-4.1,2.4-6.7C21.1,4.7,16.4,0,10.5,0C4.7,0,0,4.7,0,10.5s4.7,10.5,10.5,10.5
		c2.5,0,4.9-0.9,6.7-2.4l6,6c0.4,0.4,1.1,0.4,1.5,0C25.1,24.3,25.1,23.6,24.7,23.2z M10.5,19c-4.7,0-8.4-3.8-8.4-8.4
		s3.8-8.4,8.4-8.4c4.7,0,8.4,3.8,8.4,8.4S15.2,19,10.5,19z"/>
</g>
</svg>
