<?xml version="1.0" encoding="utf-8"?>
<!-- Generator: Adobe Illustrator 20.1.0, SVG Export Plug-In . SVG Version: 6.00 Build 0)  -->
<svg version="1.1" id="Layer_1" xmlns="http://www.w3.org/2000/svg" xmlns:xlink="http://www.w3.org/1999/xlink" x="0px" y="0px"
	 viewBox="0 0 25 20.9" style="enable-background:new 0 0 25 20.9;" xml:space="preserve">
<g>
	<g>
		<path d="M17.6,14.2c-1.9-1.1-4.5-1.7-7.2-1.7c-2.7,0-5.2,0.6-7.2,1.7C1.2,15.4,0,17,0,18.8v1c0,0.6,0.5,1,1,1s1-0.5,1-1v-1
			c0-1,0.8-2,2.2-2.8c1.6-0.9,3.8-1.4,6.2-1.4s4.5,0.5,6.2,1.4c1.4,0.8,2.2,1.8,2.2,2.8v1c0,0.6,0.5,1,1,1c0.6,0,1-0.5,1-1v-1
			C20.8,17,19.7,15.4,17.6,14.2z"/>
	</g>
</g>
<g>
	<g>
		<path d="M15.6,4.4c-0.2-1.1-0.7-2.1-1.5-2.9c-0.8-0.8-1.8-1.3-2.9-1.5c-0.5-0.1-1-0.1-1.5,0C6.9,0.5,4.9,3.1,5.3,5.9
			c0.2,1.4,0.9,2.6,2,3.4c0.9,0.7,2,1,3.1,1c0.3,0,0.5,0,0.8-0.1C14,9.9,16,7.3,15.6,4.4z M10.9,8.3c-0.8,0.1-1.7-0.1-2.4-0.6
			C7.9,7.2,7.4,6.5,7.3,5.7C7.1,3.9,8.3,2.3,10,2.1c0.2,0,0.3,0,0.5,0c0.2,0,0.3,0,0.5,0c1.4,0.2,2.5,1.3,2.7,2.7
			C13.8,6.5,12.6,8.1,10.9,8.3z"/>
	</g>
</g>
<g>
	<g>
		<path d="M20.9,5.3c-0.6,0-1,0.5-1,1v6.3c0,0.6,0.5,1,1,1c0.6,0,1-0.5,1-1V6.3C21.9,5.7,21.4,5.3,20.9,5.3z"/>
	</g>
</g>
<g>
	<g>
		<path d="M24,8.4h-6.3c-0.6,0-1,0.5-1,1c0,0.6,0.5,1,1,1H24c0.6,0,1-0.5,1-1S24.5,8.4,24,8.4z"/>
	</g>
</g>
</svg>
