<?xml version="1.0" encoding="utf-8"?>
<!-- Generator: Adobe Illustrator 20.1.0, SVG Export Plug-In . SVG Version: 6.00 Build 0)  -->
<svg version="1.1" id="Слой_1" xmlns="http://www.w3.org/2000/svg" xmlns:xlink="http://www.w3.org/1999/xlink" x="0px" y="0px"
	 viewBox="0 0 42 42" style="enable-background:new 0 0 42 42;" xml:space="preserve">
<style type="text/css">
	.st0{fill:#405C9B;}
	.st1{fill:#FFFFFF;}
	.st2{fill:#1D3665;}
</style>
<g>
	<path class="st0" d="M42,35.5c0,3.7-3,6.5-6.5,6.5H6.5C2.8,42,0,39,0,35.5V6.5C0,2.8,3,0,6.5,0h28.9C39.2,0,42,3,42,6.5V35.5z"/>
	<path id="f" class="st1" d="M27.5,42V25.8H33l0.9-6.4h-6.4v-4.1c0-1.8,0.5-3.2,3.2-3.2h3.4V6.5c-0.5,0-2.6-0.2-4.9-0.2
		c-4.8,0-8.1,3-8.1,8.5v4.8h-5.5v6.4H21V42H27.5z"/>
	<path class="st2" d="M34.1,6.5v5.6h-3.4c-2.6,0-3.2,1.2-3.2,3.2v4.1h6.4L33,25.8h-5.5V42h7.9c3.7,0,6.5-3,6.5-6.5v-21"/>
</g>
</svg>
