<?xml version="1.0" encoding="utf-8"?>
<!-- Generator: Adobe Illustrator 20.1.0, SVG Export Plug-In . SVG Version: 6.00 Build 0)  -->
<svg version="1.1" id="Слой_1" xmlns="http://www.w3.org/2000/svg" xmlns:xlink="http://www.w3.org/1999/xlink" x="0px" y="0px"
	 viewBox="0 0 42 42" enable-background="new 0 0 42 42" xml:space="preserve">
<g>
	<path fill="#DD4B39" d="M42,6.6v28.9c0,3.6-2.9,6.6-6.6,6.6H6.6C2.9,42,0,39.1,0,35.4V6.6C0,2.9,2.9,0,6.6,0h28.9
		C39.1,0,42,2.9,42,6.6z"/>
	<path fill="#8D261E" d="M33.3,15.2L33.3,15.2l-4.6-4.6l-0.8,0.8v5l-5.8-5.8l-0.8,0.2l-5.6,0.4l-2.6,0.4l-1.3,2.1l0.8,4.4l3.5,1.8
		l0.1,0.4l0.6,2.8l-0.7,0.2l-2.6,0.4l-1.6,0.6L10,26.9l1,1.3l-1.4,1.4L22,42h4h5.6h3.9c2.3,0,4.3-1.2,5.5-3c0.7-1,1.1-2.2,1.1-3.6
		v-1.9v-0.1v-0.9v-2v-6.6v-0.1L33.3,15.2z"/>
	<g>
		<path fill="#FFFFFF" d="M22.1,10.6h-6.4c-2.9,0-5.6,2.2-5.6,4.7c0,2.6,2,4.7,4.9,4.7l0.6,0c-0.2,0.4-0.3,0.8-0.3,1.2
			c0,0.7,0.4,1.3,0.9,1.8L15,23c-3.6,0-6.3,2.3-6.3,4.6c0,2.3,3,3.8,6.6,3.8c4.1,0,6.3-2.3,6.3-4.6c0-1.9-0.6-3-2.3-4.2
			c-0.6-0.4-1.7-1.4-1.7-2c0-0.7,0.2-1,1.2-1.8c1.1-0.8,1.8-2,1.8-3.4c0-1.6-0.7-3.2-2.1-3.7h2L22.1,10.6z M19.9,26.4
			c0.1,0.2,0.1,0.4,0.1,0.7c0,1.9-1.2,3.3-4.7,3.3c-2.5,0-4.3-1.6-4.3-3.4c0-1.8,2.2-3.4,4.7-3.3c0.6,0,1.1,0.1,1.6,0.3
			C18.6,24.8,19.6,25.3,19.9,26.4z M15.9,19.3c-1.7,0-3.2-1.9-3.5-4c-0.3-2.2,0.8-3.8,2.5-3.8s3.2,1.8,3.5,4
			C18.7,17.7,17.6,19.4,15.9,19.3z"/>
		<polygon fill="#FFFFFF" points="28.7,15.2 28.7,10.6 27.2,10.6 27.2,15.2 22.5,15.2 22.5,16.7 27.2,16.7 27.2,21.4 28.7,21.4 
			28.7,16.7 33.3,16.7 33.3,15.2 		"/>
	</g>
</g>
</svg>
