<?xml version="1.0" encoding="utf-8"?>
<!-- Generator: Adobe Illustrator 20.1.0, SVG Export Plug-In . SVG Version: 6.00 Build 0)  -->
<svg version="1.1" id="Слой_1" xmlns="http://www.w3.org/2000/svg" xmlns:xlink="http://www.w3.org/1999/xlink" x="0px" y="0px"
	 viewBox="0 0 42 42" style="enable-background:new 0 0 42 42;" xml:space="preserve">
<style type="text/css">
	.st0{fill:#567FA3;}
	.st1{fill:#265372;}
	.st2{fill:#FFFFFF;}
</style>
<g>
	<path class="st0" d="M42,6.6v28.8c0,3.7-3,6.6-6.6,6.6H6.7C3,41.8,0,38.9,0,35.4V6.6C0,3,3,0,6.7,0h28.9C39,0,42,3,42,6.6z"/>
	<path class="st1" d="M42,35.4V18l-9.1-9.1L30.4,11H11.2v19.2l-2.1,2.6l8.9,8.9h17.3C39,41.8,42,38.9,42,35.4z"/>
	<path class="st2" d="M32.2,8.7H9.8c-0.5,0-1.1,0.5-1.1,1v22.3c0,0.5,0.5,1,1.1,1h22.4c0.7,0,1-0.5,1-1V9.8
		C33.3,9.2,32.7,8.7,32.2,8.7z M21,16.6c2.4,0,4.4,1.9,4.4,4.4s-1.9,4.4-4.4,4.4s-4.4-1.9-4.4-4.4S18.6,16.6,21,16.6z M30.3,30.1
		H11.7V19.3h2.1c-0.2,0.5-0.2,1-0.2,1.6c0,4,3.3,7.3,7.4,7.3s7.4-3.3,7.4-7.3c0-0.5,0-1-0.2-1.6h2.1C30.3,19.3,30.3,30.1,30.3,30.1z
		 M30.3,16.4h-4.5v-4.7h4.5V16.4z"/>
</g>
</svg>
