<?xml version="1.0" encoding="utf-8"?>
<!-- Generator: Adobe Illustrator 20.1.0, SVG Export Plug-In . SVG Version: 6.00 Build 0)  -->
<svg version="1.1" id="Слой_1" xmlns="http://www.w3.org/2000/svg" xmlns:xlink="http://www.w3.org/1999/xlink" x="0px" y="0px"
	 viewBox="0 0 42 42" style="enable-background:new 0 0 42 42;" xml:space="preserve">
<style type="text/css">
	.st0{fill:#325076;}
	.st1{fill:#FFFFFF;}
	.st2{fill:#20354B;}
</style>
<g>
	<path class="st0" d="M42,35.4c0,3.7-3,6.6-6.6,6.6H6.7C3,41.8,0,38.9,0,35.4V6.6C0,3,3,0,6.7,0h28.9C39,0,42,3,42,6.6V35.4z"/>
	<path class="st1" d="M29.4,37.3L29.4,37.3C29.4,37.5,29.4,37.5,29.4,37.3z"/>
	<g>
		<g>
			<path class="st2" d="M20.6,19.2c0.7,0,1.2-0.2,1.8-0.3c0.5-0.2,1.1-0.5,1.2-0.9c0.2-0.3,0.4-0.9,0.4-1.2c0-0.3-0.2-0.7-0.4-1.2
				c-0.2-0.3-0.5-0.7-1.1-0.9c-0.5-0.2-1.1-0.2-1.8-0.3c-0.7,0-0.9,0-2.3,0H18v4.9h1.1C19.8,19.2,19.9,19.2,20.6,19.2z"/>
			<path class="st2" d="M21.4,28.6c0.9,0,1.6-0.2,2.1-0.3c0.7-0.2,1.2-0.5,1.4-1c0.2-0.3,0.3-0.9,0.3-1.4c0-0.7-0.2-1-0.5-1.6
				c-0.4-0.3-0.9-0.7-1.6-0.9c-0.5-0.2-1.2-0.2-2.1-0.2s-1.1,0-2.1,0h-1.4v5.6H18C20.1,28.6,20.6,28.6,21.4,28.6z"/>
			<path class="st2" d="M29.9,12.2c0.2,0.2,0.4,0.5,0.5,0.7c0.5,0.7,0.7,1.6,0.7,2.6s-0.4,2.1-1,3c-0.7,0.9-1.6,1.6-2.8,1.9v0.2
				c1.6,0.3,2.3,0.9,3.3,1.9c1.1,0.9,1.4,2.1,1.4,3.7c0,1-0.2,2.1-0.7,3c-0.5,0.9-1.2,1.6-2.1,2.1c-1.1,0.7-2.1,1.2-3.3,1.4
				c-1.2,0.3-2.6,0.3-4.6,0.3H10.7l8.9,8.9h15.9c3.7,0,6.5-3,6.5-6.6V24L29.9,12.2z"/>
		</g>
	</g>
	<path class="st1" d="M21.2,23.2c-0.9,0-1.1,0-2.1,0h-1.4v5.6h0.5c1.8,0,2.4,0,3.2,0c0.9,0,1.6-0.2,2.1-0.3c0.7-0.2,1.2-0.5,1.4-1
		c0.2-0.3,0.3-0.9,0.3-1.4c0-0.7-0.2-1-0.5-1.6c-0.4-0.3-0.9-0.7-1.6-0.9C22.9,23.2,22.2,23.2,21.2,23.2L21.2,23.2z M22.4,14.6
		c-0.5-0.2-1-0.2-1.8-0.3c-0.7,0-0.9,0-2.3,0h-0.5v4.9h1c1.1,0,1.1,0,1.9,0c0.7,0,1.2-0.2,1.8-0.3c0.5-0.2,1.1-0.5,1.2-0.9
		c0.2-0.3,0.3-0.9,0.3-1.2c0-0.3-0.2-0.7-0.3-1.2C23.3,15.2,22.9,14.8,22.4,14.6L22.4,14.6z M20.5,10.1c2.1,0,4.2,0,5.1,0.2
		c0.9,0.2,1.9,0.3,2.8,0.9c0.9,0.5,1.8,1,2.1,1.7c0.5,0.7,0.7,1.6,0.7,2.6s-0.4,2.1-1,3c-0.7,0.9-1.6,1.6-2.8,1.9v0.2
		c1.6,0.3,2.3,0.9,3.3,1.9c1.1,0.9,1.4,2.1,1.4,3.7c0,1-0.2,2.1-0.7,3c-0.5,0.9-1.2,1.6-2.1,2.1c-1.1,0.7-2.1,1.2-3.3,1.4
		c-1.2,0.3-2.6,0.3-4.5,0.3H10.7V10.1H20.5L20.5,10.1z"/>
</g>
</svg>
