<?xml version="1.0" encoding="utf-8"?>
<!-- Generator: Adobe Illustrator 20.1.0, SVG Export Plug-In . SVG Version: 6.00 Build 0)  -->
<svg version="1.1" id="Layer_1" xmlns="http://www.w3.org/2000/svg" xmlns:xlink="http://www.w3.org/1999/xlink" x="0px" y="0px"
	 viewBox="0 0 28 22" style="enable-background:new 0 0 28 22;" xml:space="preserve">
<path d="M4,18.5v3c0,0.1,0,0.3-0.1,0.4S3.6,22,3.5,22h-3c-0.1,0-0.3,0-0.4-0.1S0,21.6,0,21.5v-3c0-0.1,0-0.3,0.1-0.4S0.4,18,0.5,18
	h3c0.1,0,0.3,0,0.4,0.1S4,18.4,4,18.5z M4,12.5v3c0,0.1,0,0.3-0.1,0.4S3.6,16,3.5,16h-3c-0.1,0-0.3,0-0.4-0.1S0,15.6,0,15.5v-3
	c0-0.1,0-0.3,0.1-0.4S0.4,12,0.5,12h3c0.1,0,0.3,0,0.4,0.1S4,12.4,4,12.5z M4,6.5v3c0,0.1,0,0.3-0.1,0.4S3.6,10,3.5,10h-3
	c-0.1,0-0.3,0-0.4-0.1S0,9.6,0,9.5v-3c0-0.1,0-0.3,0.1-0.4S0.4,6,0.5,6h3c0.1,0,0.3,0,0.4,0.1S4,6.4,4,6.5z M28,18.5v3
	c0,0.1,0,0.3-0.1,0.4S27.6,22,27.5,22h-21c-0.1,0-0.3,0-0.4-0.1S6,21.6,6,21.5v-3c0-0.1,0-0.3,0.1-0.4S6.4,18,6.5,18h21
	c0.1,0,0.3,0,0.4,0.1S28,18.4,28,18.5z M4,0.5v3c0,0.1,0,0.3-0.1,0.4S3.6,4,3.5,4h-3C0.4,4,0.2,4,0.1,3.9S0,3.6,0,3.5v-3
	c0-0.1,0-0.3,0.1-0.4S0.4,0,0.5,0h3c0.1,0,0.3,0,0.4,0.1S4,0.4,4,0.5z M28,12.5v3c0,0.1,0,0.3-0.1,0.4S27.6,16,27.5,16h-21
	c-0.1,0-0.3,0-0.4-0.1S6,15.6,6,15.5v-3c0-0.1,0-0.3,0.1-0.4S6.4,12,6.5,12h21c0.1,0,0.3,0,0.4,0.1S28,12.4,28,12.5z M28,6.5v3
	c0,0.1,0,0.3-0.1,0.4S27.6,10,27.5,10h-21c-0.1,0-0.3,0-0.4-0.1S6,9.6,6,9.5v-3c0-0.1,0-0.3,0.1-0.4S6.4,6,6.5,6h21
	c0.1,0,0.3,0,0.4,0.1S28,6.4,28,6.5z M28,0.5v3c0,0.1,0,0.3-0.1,0.4S27.6,4,27.5,4h-21C6.4,4,6.2,4,6.1,3.9S6,3.6,6,3.5v-3
	c0-0.1,0-0.3,0.1-0.4S6.4,0,6.5,0h21c0.1,0,0.3,0,0.4,0.1S28,0.4,28,0.5z"/>
</svg>
