<?xml version="1.0" encoding="utf-8"?>
<!-- Generator: Adobe Illustrator 20.1.0, SVG Export Plug-In . SVG Version: 6.00 Build 0)  -->
<svg version="1.1" id="Layer_1" xmlns="http://www.w3.org/2000/svg" xmlns:xlink="http://www.w3.org/1999/xlink" x="0px" y="0px"
	 viewBox="0 0 40 40" style="enable-background:new 0 0 40 40;" xml:space="preserve">
<path d="M40,32.2c0,0.9-0.3,1.7-0.9,2.3l-4.6,4.6c-0.6,0.6-1.4,0.9-2.3,0.9c-0.9,0-1.7-0.3-2.3-0.9L20,29.2l-9.9,9.9
	C9.5,39.7,8.7,40,7.8,40c-0.9,0-1.7-0.3-2.3-0.9l-4.6-4.6C0.3,33.8,0,33.1,0,32.2c0-0.9,0.3-1.7,0.9-2.3l9.9-9.9l-9.9-9.9
	C0.3,9.5,0,8.7,0,7.8c0-0.9,0.3-1.7,0.9-2.3l4.6-4.6C6.2,0.3,6.9,0,7.8,0c0.9,0,1.7,0.3,2.3,0.9l9.9,9.9l9.9-9.9
	C30.5,0.3,31.3,0,32.2,0c0.9,0,1.7,0.3,2.3,0.9l4.6,4.6C39.7,6.2,40,6.9,40,7.8c0,0.9-0.3,1.7-0.9,2.3L29.2,20l9.9,9.9
	C39.7,30.5,40,31.3,40,32.2z"/>
</svg>
