<?xml version="1.0" encoding="utf-8"?>
<!-- Generator: Adobe Illustrator 20.1.0, SVG Export Plug-In . SVG Version: 6.00 Build 0)  -->
<svg version="1.1" id="Capa_1" xmlns="http://www.w3.org/2000/svg" xmlns:xlink="http://www.w3.org/1999/xlink" x="0px" y="0px"
	 viewBox="0 0 40 40" style="enable-background:new 0 0 40 40;" xml:space="preserve">
<g>
	<path d="M33.1,22.5c1.4,0,2.8-1.1,3.2-2.4l3.6-12.7C40.3,6.1,39.5,5,38.1,5H12.5c0-2.8-2.2-5-5-5H0v5h7.5v21.2
		c0,2.1,1.7,3.7,3.7,3.7H35c1.4,0,2.5-1.1,2.5-2.5c0-1.4-1.1-2.5-2.5-2.5H12.5v-2.5L33.1,22.5L33.1,22.5z M12.5,10h22.6L33,17.5
		H12.5V10z M15,36.9c0,1.7-1.4,3.1-3.1,3.1h-1.3c-1.7,0-3.1-1.4-3.1-3.1v-1.3c0-1.7,1.4-3.1,3.1-3.1h1.3c1.7,0,3.1,1.4,3.1,3.1V36.9
		z M37.5,36.9c0,1.7-1.4,3.1-3.1,3.1h-1.3c-1.7,0-3.1-1.4-3.1-3.1v-1.3c0-1.7,1.4-3.1,3.1-3.1h1.3c1.7,0,3.1,1.4,3.1,3.1V36.9z"/>
</g>
<rect x="18" y="5" width="0.3" height="5"/>
</svg>
