<?xml version="1.0" encoding="utf-8"?>
<!-- Generator: Adobe Illustrator 20.1.0, SVG Export Plug-In . SVG Version: 6.00 Build 0)  -->
<svg version="1.1" id="Layer_1" xmlns="http://www.w3.org/2000/svg" xmlns:xlink="http://www.w3.org/1999/xlink" x="0px" y="0px"
	 viewBox="0 0 30 23" style="enable-background:new 0 0 30 23;" xml:space="preserve">
<path d="M30,4.5c0,0.5-0.2,1-0.5,1.3l-14,14l-2.6,2.6C12.5,22.8,12,23,11.5,23c-0.5,0-1-0.2-1.3-0.5l-2.6-2.6l-7-7
	C0.2,12.5,0,12,0,11.5c0-0.5,0.2-1,0.5-1.3l2.6-2.6C3.5,7.2,4,7,4.5,7s1,0.2,1.3,0.5l5.7,5.7L24.2,0.5C24.6,0.2,25,0,25.5,0
	c0.5,0,1,0.2,1.3,0.5l2.6,2.6C29.8,3.5,30,4,30,4.5z"/>
</svg>
