<?xml version="1.0" encoding="utf-8"?>
<!-- Generator: Adobe Illustrator 20.1.0, SVG Export Plug-In . SVG Version: 6.00 Build 0)  -->
<svg version="1.1" id="Layer_1" xmlns="http://www.w3.org/2000/svg" xmlns:xlink="http://www.w3.org/1999/xlink" x="0px" y="0px"
	 viewBox="0 0 40 34.3" style="enable-background:new 0 0 40 34.3;" xml:space="preserve">
<path d="M20,34.3c-0.4,0-0.7-0.1-1-0.4L5.1,20.4c-0.1-0.1-0.4-0.3-0.6-0.6c-0.3-0.3-0.7-0.8-1.2-1.5c-0.6-0.7-1.1-1.4-1.5-2.2
	c-0.4-0.7-0.8-1.6-1.2-2.7S0,11.4,0,10.4c0-3.3,0.9-5.8,2.8-7.7S7.3,0,10.7,0c0.9,0,1.9,0.2,2.8,0.5s1.9,0.8,2.7,1.3
	c0.8,0.5,1.5,1.1,2.1,1.5s1.2,1,1.7,1.5c0.5-0.5,1.1-1,1.7-1.5s1.3-1,2.1-1.5s1.7-1,2.7-1.3S28.4,0,29.3,0c3.3,0,5.9,0.9,7.8,2.8
	c1.9,1.8,2.8,4.4,2.8,7.7c0,3.3-1.7,6.6-5.1,10L21,33.9C20.7,34.2,20.4,34.3,20,34.3z"/>
</svg>
