<?xml version="1.0" encoding="utf-8"?>
<!-- Generator: Adobe Illustrator 20.1.0, SVG Export Plug-In . SVG Version: 6.00 Build 0)  -->
<svg version="1.1" id="Capa_1" xmlns="http://www.w3.org/2000/svg" xmlns:xlink="http://www.w3.org/1999/xlink" x="0px" y="0px"
	 viewBox="0 0 40 35" style="enable-background:new 0 0 40 35;" xml:space="preserve">
<g>
	<path d="M40,11.5C40,5.1,34.9,0,28.5,0c-3.4,0-6.4,1.5-8.5,3.8C17.9,1.5,14.9,0,11.5,0C5.1,0,0,5.1,0,11.5c0,3.4,1.5,6.4,3.8,8.5h0
		l12.5,12.5c1.3,1.3,2.5,2.5,3.8,2.5s2.5-1.3,3.8-2.5L36.3,20h0C38.5,17.9,40,14.9,40,11.5z M32.9,16.3L20.2,29
		c-0.1,0.1-0.1,0.1-0.2,0.2c-0.1-0.1-0.1-0.1-0.2-0.2L7.1,16.3c-1.4-1.2-2.1-3-2.1-4.8C5,7.9,7.9,5,11.5,5c1.9,0,3.6,0.8,4.8,2.1
		l3.7,4.1l3.7-4.1c1.2-1.4,3-2.1,4.8-2.1c3.6,0,6.5,2.9,6.5,6.5C35,13.3,34.2,15.1,32.9,16.3z"/>
</g>
<rect x="11.5" width="0.5" height="5"/>
</svg>
