<?xml version="1.0" encoding="utf-8"?>
<!-- Generator: Adobe Illustrator 20.1.0, SVG Export Plug-In . SVG Version: 6.00 Build 0)  -->
<svg version="1.1" id="Layer_1" xmlns="http://www.w3.org/2000/svg" xmlns:xlink="http://www.w3.org/1999/xlink" x="0px" y="0px"
	 viewBox="0 0 50 50" style="enable-background:new 0 0 50 50;" xml:space="preserve">
<path d="M26.3,40.2c0-0.4,0-0.8-0.1-1.2c-0.1-0.4-0.2-0.8-0.3-1.1c-0.1-0.3-0.3-0.7-0.5-1s-0.5-0.7-0.6-0.9
	c-0.2-0.3-0.4-0.5-0.8-0.9c-0.4-0.3-0.6-0.6-0.8-0.8c-0.2-0.2-0.5-0.4-1-0.8c-0.5-0.3-0.8-0.6-0.9-0.7s-0.5-0.4-1-0.7
	c-0.5-0.3-0.8-0.6-0.9-0.6c-0.3,0-0.8-0.1-1.5-0.1c-1.1,0-2.1,0.1-3.2,0.2s-2.1,0.4-3.2,0.8s-2.1,0.8-2.9,1.4
	c-0.8,0.6-1.5,1.3-2.1,2.3c-0.5,0.9-0.8,2-0.8,3.2c0,1.4,0.4,2.6,1.1,3.7s1.6,1.9,2.8,2.5c1.2,0.6,2.4,1.1,3.6,1.4s2.5,0.5,3.8,0.5
	c1.2,0,2.3-0.1,3.4-0.4c1.1-0.3,2.1-0.6,3-1.2c0.9-0.5,1.7-1.3,2.2-2.2C26,42.5,26.3,41.4,26.3,40.2z M22.7,14.3
	c0-1.2-0.2-2.5-0.5-3.8c-0.3-1.4-0.8-2.7-1.4-3.9c-0.6-1.3-1.5-2.3-2.5-3.1c-1.1-0.8-2.3-1.2-3.6-1.2c-1.9,0-3.3,0.7-4.3,2.1
	s-1.5,3-1.5,5c0,0.9,0.1,1.9,0.3,3s0.6,2.1,1.1,3.1s1,2,1.7,2.8c0.6,0.8,1.4,1.5,2.3,2c0.9,0.5,1.9,0.8,2.9,0.8
	c1.9,0,3.4-0.6,4.2-1.8C22.3,17.9,22.7,16.3,22.7,14.3z M18.8,0h13.1l-4.1,2.4h-4.1c1.4,0.9,2.5,2.2,3.3,3.8s1.2,3.3,1.2,5.1
	c0,1.5-0.2,2.8-0.7,4c-0.5,1.2-1,2.1-1.7,2.8c-0.7,0.7-1.3,1.3-2,1.9c-0.7,0.6-1.2,1.2-1.7,1.8c-0.5,0.6-0.7,1.3-0.7,2
	c0,0.5,0.2,1,0.5,1.5c0.3,0.5,0.8,1,1.3,1.4c0.5,0.5,1.1,0.9,1.8,1.4c0.6,0.5,1.3,1.1,1.9,1.7s1.2,1.3,1.8,2s1,1.6,1.3,2.6
	c0.3,1,0.5,2.1,0.5,3.2c0,3.2-1.4,6-4.2,8.5c-3,2.6-7.3,3.9-12.6,3.9c-1.2,0-2.4-0.1-3.6-0.3c-1.2-0.2-2.4-0.5-3.7-1
	S4.2,47.6,3.2,47c-0.9-0.7-1.7-1.6-2.3-2.7S0,42,0,40.6c0-1.2,0.4-2.6,1.1-4.1c0.6-1.3,1.6-2.4,2.9-3.3c1.3-0.9,2.7-1.6,4.4-2.1
	c1.6-0.5,3.2-0.9,4.7-1.1c1.5-0.2,3-0.4,4.5-0.4c-1.3-1.7-1.9-3.2-1.9-4.5c0-0.2,0-0.5,0.1-0.7c0-0.2,0.1-0.4,0.2-0.6
	c0.1-0.2,0.1-0.4,0.2-0.6c0.1-0.3,0.2-0.5,0.2-0.6c-0.8,0.1-1.5,0.2-2.1,0.2c-3,0-5.5-1-7.7-2.9s-3.2-4.4-3.2-7.4
	c0-2.8,1-5.3,2.9-7.5s4.2-3.6,7-4.3C15,0.2,16.9,0,18.8,0z M50,7.7v3.8h-7.7v7.7h-3.8v-7.7h-7.7V7.7h7.7V0h3.8v7.7H50z"/>
</svg>
