<?xml version="1.0" encoding="utf-8"?>
<!-- Generator: Adobe Illustrator 20.1.0, SVG Export Plug-In . SVG Version: 6.00 Build 0)  -->
<svg version="1.1" id="Layer_1" xmlns="http://www.w3.org/2000/svg" xmlns:xlink="http://www.w3.org/1999/xlink" x="0px" y="0px"
	 viewBox="0 0 50 39.8" style="enable-background:new 0 0 50 39.8;" xml:space="preserve">
<path d="M42.9,22.9v14.9c0,0.5-0.2,1-0.6,1.4c-0.4,0.4-0.9,0.6-1.4,0.6H29V27.9H21v11.9H9.1c-0.5,0-1-0.2-1.4-0.6
	c-0.4-0.4-0.6-0.9-0.6-1.4V22.9c0,0,0-0.1,0-0.1c0,0,0-0.1,0-0.1L25,8l17.8,14.7C42.9,22.8,42.9,22.8,42.9,22.9z M49.8,20.8
	l-1.9,2.3c-0.2,0.2-0.4,0.3-0.7,0.3h-0.1c-0.3,0-0.5-0.1-0.7-0.2L25,5.3L3.5,23.2c-0.2,0.2-0.5,0.2-0.7,0.2c-0.3,0-0.5-0.2-0.7-0.3
	l-1.9-2.3C0.1,20.6,0,20.3,0,20s0.1-0.5,0.3-0.7L22.6,0.8C23.3,0.3,24.1,0,25,0s1.7,0.3,2.4,0.8l7.6,6.3v-6c0-0.3,0.1-0.5,0.3-0.7
	c0.2-0.2,0.4-0.3,0.7-0.3h6c0.3,0,0.5,0.1,0.7,0.3s0.3,0.4,0.3,0.7v12.7l6.8,5.6c0.2,0.2,0.3,0.4,0.3,0.7S49.9,20.6,49.8,20.8z"/>
</svg>
