<?xml version="1.0" encoding="utf-8"?>
<!-- Generator: Adobe Illustrator 20.1.0, SVG Export Plug-In . SVG Version: 6.00 Build 0)  -->
<svg version="1.1" id="Layer_1" xmlns="http://www.w3.org/2000/svg" xmlns:xlink="http://www.w3.org/1999/xlink" x="0px" y="0px"
	 viewBox="0 0 50 50" style="enable-background:new 0 0 50 50;" xml:space="preserve">
<path d="M44.3,42.3V21.2h-4.4c0.4,1.4,0.7,2.8,0.7,4.3c0,2.7-0.7,5.3-2.1,7.6c-1.4,2.3-3.3,4.1-5.7,5.5s-5,2-7.8,2
	c-4.3,0-7.9-1.5-11-4.4s-4.6-6.5-4.6-10.7c0-1.5,0.2-2.9,0.7-4.3H5.6v21.1c0,0.6,0.2,1,0.6,1.4C6.5,44,7,44.2,7.6,44.2h34.8
	c0.5,0,1-0.2,1.4-0.6C44.1,43.3,44.3,42.8,44.3,42.3z M35.1,24.9c0-2.7-1-5-2.9-6.9c-2-1.9-4.3-2.8-7.1-2.8c-2.8,0-5.1,0.9-7.1,2.8
	S15,22.2,15,24.9s1,5,2.9,6.9s4.3,2.8,7.1,2.8c2.8,0,5.1-0.9,7.1-2.8C34.1,29.9,35.1,27.6,35.1,24.9z M44.3,13.2V7.8
	c0-0.6-0.2-1.1-0.7-1.6s-1-0.7-1.6-0.7h-5.7c-0.6,0-1.2,0.2-1.6,0.7s-0.7,1-0.7,1.6v5.4c0,0.6,0.2,1.2,0.7,1.6s1,0.7,1.6,0.7h5.7
	c0.6,0,1.2-0.2,1.6-0.7S44.3,13.8,44.3,13.2z M50,6.4v37.2c0,1.8-0.6,3.3-1.9,4.5c-1.3,1.3-2.8,1.9-4.5,1.9H6.4
	c-1.8,0-3.3-0.6-4.5-1.9C0.6,46.9,0,45.3,0,43.6V6.4c0-1.8,0.6-3.3,1.9-4.5S4.7,0,6.4,0h37.2c1.8,0,3.3,0.6,4.5,1.9
	C49.4,3.1,50,4.7,50,6.4z"/>
</svg>
