<?xml version="1.0" encoding="utf-8"?>
<!-- Generator: Adobe Illustrator 20.1.0, SVG Export Plug-In . SVG Version: 6.00 Build 0)  -->
<svg stroke-width="20" stroke-color="black" version="1.1" id="Capa_1" xmlns="http://www.w3.org/2000/svg" xmlns:xlink="http://www.w3.org/1999/xlink" x="0px" y="0px"
	 viewBox="0 0 40 37" style="enable-background:new 0 0 40 37;" xml:space="preserve">
<style type="text/css">
	.st0{fill:#006DF0;}
</style>
<g>
	<g>
		<path class="st0" d="M19.3,36.7c0.3,0.2,0.5,0.3,0.8,0.3c0.3,0,0.6-0.1,0.8-0.3c0.7-0.5,16.9-11.2,18.8-22.1
			c0.9-5.6-0.8-9.1-2.4-11C35.4,1.3,32.6,0,29.8,0c-0.9,0-1.8,0.2-2.6,0.5c-3.9,1.5-6.5,4-8,5.8C17.8,4.5,15.4,2,12.5,1
			c-0.9-0.3-1.9-0.5-2.9-0.5c-2.6,0-5.1,1.1-6.8,3C1.3,5.2-0.4,8.4,0.1,13.9C1.2,24.8,18.5,36.2,19.3,36.7z M5.1,5.6
			c1.6-1.7,3.5-2,4.5-2c0.7,0,1.3,0.1,1.9,0.3c3.6,1.2,6.4,5.7,6.5,5.8c0.3,0.5,0.8,0.7,1.3,0.7c0.5,0,1-0.3,1.3-0.8
			c0-0.1,2.6-4.4,7.7-6.3c0.4-0.2,1-0.3,1.5-0.3C31.7,3,33.6,4,35,5.6c1.7,2.1,2.3,5,1.7,8.6c-0.7,3.9-3.8,8.6-9.2,13.5
			c-3,2.8-6,4.9-7.4,5.9c-1.5-1-4.6-3.3-7.8-6.2c-5.6-5.1-8.7-9.9-9.1-13.7C2.8,10.1,3.5,7.3,5.1,5.6z"/>
	</g>
</g>
</svg>
