<?xml version="1.0" encoding="utf-8"?>
<!-- Generator: Adobe Illustrator 20.1.0, SVG Export Plug-In . SVG Version: 6.00 Build 0)  -->
<svg version="1.1" id="Layer_1" xmlns="http://www.w3.org/2000/svg" xmlns:xlink="http://www.w3.org/1999/xlink" x="0px" y="0px"
	 viewBox="0 0 40 60" style="enable-background:new 0 0 40 60;" xml:space="preserve">
<path d="M30,20c0-2.8-1-5.1-2.9-7.1S22.8,10,20,10s-5.1,1-7.1,2.9S10,17.2,10,20s1,5.1,2.9,7.1S17.2,30,20,30s5.1-1,7.1-2.9
	S30,22.8,30,20z M40,20c0,2.8-0.4,5.2-1.3,7L24.5,57.2c-0.4,0.9-1,1.5-1.9,2S20.9,60,20,60s-1.8-0.2-2.6-0.7s-1.4-1.2-1.8-2L1.3,27
	C0.4,25.2,0,22.8,0,20C0,14.5,2,9.8,5.9,5.9S14.5,0,20,0s10.2,2,14.1,5.9S40,14.5,40,20z"/>
</svg>
