<?xml version="1.0" encoding="utf-8"?>
<!-- Generator: Adobe Illustrator 20.1.0, SVG Export Plug-In . SVG Version: 6.00 Build 0)  -->
<svg version="1.1" id="Слой_1" xmlns="http://www.w3.org/2000/svg" xmlns:xlink="http://www.w3.org/1999/xlink" x="0px" y="0px"
	 viewBox="0 0 40 40" style="enable-background:new 0 0 40 40;" xml:space="preserve">
<path d="M11.4,31.8v5.5c0,0.8-0.2,1.4-0.6,1.9C10.4,39.7,9.9,40,9.3,40H2.1c-0.6,0-1.1-0.3-1.5-0.8C0.2,38.7,0,38,0,37.3v-5.5
	c0-0.8,0.2-1.4,0.6-1.9s0.9-0.8,1.5-0.8h7.1c0.6,0,1.1,0.3,1.5,0.8C11.2,30.4,11.4,31.1,11.4,31.8z M11.4,17.3v5.5
	c0,0.8-0.2,1.4-0.6,1.9c-0.4,0.5-0.9,0.8-1.5,0.8H2.1c-0.6,0-1.1-0.3-1.5-0.8C0.2,24.1,0,23.5,0,22.7v-5.5c0-0.8,0.2-1.4,0.6-1.9
	s0.9-0.8,1.5-0.8h7.1c0.6,0,1.1,0.3,1.5,0.8C11.2,15.9,11.4,16.5,11.4,17.3z M25.7,31.8v5.5c0,0.8-0.2,1.4-0.6,1.9
	c-0.4,0.5-0.9,0.8-1.5,0.8h-7.1c-0.6,0-1.1-0.3-1.5-0.8c-0.4-0.5-0.6-1.2-0.6-1.9v-5.5c0-0.8,0.2-1.4,0.6-1.9s0.9-0.8,1.5-0.8h7.1
	c0.6,0,1.1,0.3,1.5,0.8C25.5,30.4,25.7,31.1,25.7,31.8z M11.4,2.7v5.5c0,0.8-0.2,1.4-0.6,1.9c-0.4,0.5-0.9,0.8-1.5,0.8H2.1
	c-0.6,0-1.1-0.3-1.5-0.8C0.2,9.6,0,8.9,0,8.2V2.7C0,2,0.2,1.3,0.6,0.8S1.5,0,2.1,0h7.1c0.6,0,1.1,0.3,1.5,0.8
	C11.2,1.3,11.4,2,11.4,2.7z M25.7,17.3v5.5c0,0.8-0.2,1.4-0.6,1.9c-0.4,0.5-0.9,0.8-1.5,0.8h-7.1c-0.6,0-1.1-0.3-1.5-0.8
	c-0.4-0.5-0.6-1.2-0.6-1.9v-5.5c0-0.8,0.2-1.4,0.6-1.9s0.9-0.8,1.5-0.8h7.1c0.6,0,1.1,0.3,1.5,0.8C25.5,15.9,25.7,16.5,25.7,17.3z
	 M40,31.8v5.5c0,0.8-0.2,1.4-0.6,1.9C39,39.7,38.5,40,37.9,40h-7.1c-0.6,0-1.1-0.3-1.5-0.8c-0.4-0.5-0.6-1.2-0.6-1.9v-5.5
	c0-0.8,0.2-1.4,0.6-1.9s0.9-0.8,1.5-0.8h7.1c0.6,0,1.1,0.3,1.5,0.8S40,31.1,40,31.8z M25.7,2.7v5.5c0,0.8-0.2,1.4-0.6,1.9
	c-0.4,0.5-0.9,0.8-1.5,0.8h-7.1c-0.6,0-1.1-0.3-1.5-0.8c-0.4-0.5-0.6-1.2-0.6-1.9V2.7c0-0.8,0.2-1.4,0.6-1.9S15.8,0,16.4,0h7.1
	c0.6,0,1.1,0.3,1.5,0.8C25.5,1.3,25.7,2,25.7,2.7z M40,17.3v5.5c0,0.8-0.2,1.4-0.6,1.9c-0.4,0.5-0.9,0.8-1.5,0.8h-7.1
	c-0.6,0-1.1-0.3-1.5-0.8c-0.4-0.5-0.6-1.2-0.6-1.9v-5.5c0-0.8,0.2-1.4,0.6-1.9s0.9-0.8,1.5-0.8h7.1c0.6,0,1.1,0.3,1.5,0.8
	S40,16.5,40,17.3z M40,2.7v5.5c0,0.8-0.2,1.4-0.6,1.9c-0.4,0.5-0.9,0.8-1.5,0.8h-7.1c-0.6,0-1.1-0.3-1.5-0.8
	c-0.4-0.5-0.6-1.2-0.6-1.9V2.7c0-0.8,0.2-1.4,0.6-1.9S30.1,0,30.7,0h7.1c0.6,0,1.1,0.3,1.5,0.8S40,2,40,2.7z"/>
</svg>
