<?xml version="1.0" encoding="utf-8"?>
<!-- Generator: Adobe Illustrator 20.1.0, SVG Export Plug-In . SVG Version: 6.00 Build 0)  -->
<svg fill="#12a4dd" xmlns="http://www.w3.org/2000/svg" viewBox="0 0 40 31.4">
<path d="M40,10.1v17.7c0,1-0.3,1.8-1,2.5c-0.7,0.7-1.5,1-2.5,1H3.6c-1,0-1.8-0.3-2.5-1c-0.7-0.7-1-1.5-1-2.5V10.1
	c0.7,0.7,1.4,1.4,2.3,1.9c5.4,3.7,9.1,6.2,11.1,7.7c0.8,0.6,1.5,1.1,2.1,1.5c0.5,0.3,1.2,0.7,2.1,1.1c0.9,0.4,1.7,0.5,2.5,0.5h0h0
	c0.8,0,1.6-0.2,2.5-0.5c0.9-0.4,1.6-0.7,2.1-1.1c0.5-0.3,1.2-0.8,2.1-1.5c2.5-1.8,6.2-4.4,11.1-7.7C38.6,11.5,39.4,10.8,40,10.1z
	 M40,3.6c0,1.2-0.4,2.3-1.1,3.4s-1.6,2-2.7,2.7c-5.6,3.9-9.1,6.3-10.4,7.3c-0.1,0.1-0.5,0.3-0.9,0.7c-0.5,0.3-0.9,0.6-1.2,0.8
	c-0.3,0.2-0.7,0.5-1.2,0.7s-0.9,0.5-1.3,0.6C20.7,19.9,20.4,20,20,20h0h0c-0.3,0-0.7-0.1-1.1-0.2c-0.4-0.1-0.8-0.3-1.3-0.6
	s-0.8-0.5-1.2-0.7c-0.3-0.2-0.7-0.5-1.2-0.8c-0.5-0.3-0.8-0.6-0.9-0.7c-1.4-1-3.3-2.3-5.8-4.1S4.3,10,3.8,9.7C2.9,9.1,2,8.2,1.2,7.1
	S0,5,0,4.1c0-1.2,0.3-2.1,0.9-2.9S2.4,0,3.6,0h32.9c1,0,1.8,0.3,2.5,1S40,2.6,40,3.6z"/>
</svg>
