<?xml version="1.0" encoding="utf-8"?>
<!-- Generator: Adobe Illustrator 20.1.0, SVG Export Plug-In . SVG Version: 6.00 Build 0)  -->
<svg version="1.1" id="Layer_1" xmlns="http://www.w3.org/2000/svg" xmlns:xlink="http://www.w3.org/1999/xlink" x="0px" y="0px"
	 viewBox="0 0 40 33.3" style="enable-background:new 0 0 40 33.3;" xml:space="preserve">
<path d="M40,28.3v3.3c0,0.5-0.2,0.8-0.5,1.2c-0.3,0.3-0.7,0.5-1.2,0.5H1.7c-0.5,0-0.8-0.2-1.2-0.5S0,32.1,0,31.7v-3.3
	c0-0.5,0.2-0.8,0.5-1.2c0.3-0.3,0.7-0.5,1.2-0.5h36.7c0.5,0,0.8,0.2,1.2,0.5C39.8,27.5,40,27.9,40,28.3z M40,15v3.3
	c0,0.5-0.2,0.8-0.5,1.2c-0.3,0.3-0.7,0.5-1.2,0.5H1.7c-0.5,0-0.8-0.2-1.2-0.5C0.2,19.2,0,18.8,0,18.3V15c0-0.5,0.2-0.8,0.5-1.2
	c0.3-0.3,0.7-0.5,1.2-0.5h36.7c0.5,0,0.8,0.2,1.2,0.5C39.8,14.2,40,14.5,40,15z M40,1.7V5c0,0.5-0.2,0.8-0.5,1.2
	c-0.3,0.3-0.7,0.5-1.2,0.5H1.7c-0.5,0-0.8-0.2-1.2-0.5C0.2,5.8,0,5.5,0,5V1.7c0-0.5,0.2-0.8,0.5-1.2S1.2,0,1.7,0h36.7
	c0.5,0,0.8,0.2,1.2,0.5C39.8,0.8,40,1.2,40,1.7z"/>
</svg>
