<?xml version="1.0" encoding="utf-8"?>
<!-- Generator: Adobe Illustrator 20.1.0, SVG Export Plug-In . SVG Version: 6.00 Build 0)  -->
<svg version="1.1" id="Layer_1" xmlns="http://www.w3.org/2000/svg" xmlns:xlink="http://www.w3.org/1999/xlink" x="0px" y="0px"
	 viewBox="0 0 40 31.4" style="enable-background:new 0 0 40 31.4;" xml:space="preserve">
<path d="M37.1,27.9V10.7c-0.5,0.5-1,1-1.5,1.5c-4,3.1-7.2,5.6-9.5,7.5c-0.8,0.6-1.4,1.1-1.9,1.5s-1.1,0.7-1.9,1.1s-1.6,0.5-2.3,0.5
	h0h0c-0.7,0-1.5-0.2-2.3-0.5s-1.5-0.7-1.9-1.1s-1.1-0.9-1.9-1.5c-2.4-2-5.5-4.5-9.5-7.5c-0.6-0.4-1.1-0.9-1.5-1.5v17.1
	c0,0.2,0.1,0.4,0.2,0.5s0.3,0.2,0.5,0.2h32.9c0.2,0,0.4-0.1,0.5-0.2C37.1,28.2,37.1,28.1,37.1,27.9z M37.1,4.4V4.2V3.9
	c0,0,0-0.1,0-0.3c0-0.2,0-0.3-0.1-0.3S37,3.2,36.9,3.1c0-0.1-0.1-0.2-0.2-0.2c-0.1,0-0.2,0-0.3-0.1H3.6c-0.2,0-0.4,0.1-0.5,0.2
	S2.9,3.4,2.9,3.6c0,2.5,1.1,4.6,3.3,6.3c2.9,2.3,5.9,4.6,9,7.1c0.1,0.1,0.3,0.3,0.8,0.7c0.4,0.4,0.8,0.6,1,0.8
	c0.3,0.2,0.6,0.4,1,0.7c0.4,0.3,0.8,0.5,1.1,0.6s0.7,0.2,1,0.2h0h0c0.3,0,0.6-0.1,1-0.2s0.7-0.3,1.1-0.6c0.4-0.3,0.7-0.5,1-0.7
	c0.3-0.2,0.6-0.5,1-0.8c0.4-0.4,0.7-0.6,0.8-0.7c3.1-2.5,6.1-4.8,9-7.1c0.8-0.6,1.6-1.5,2.2-2.6C36.8,6.3,37.1,5.3,37.1,4.4z
	 M40,3.6v24.3c0,1-0.3,1.8-1,2.5c-0.7,0.7-1.5,1-2.5,1H3.6c-1,0-1.8-0.3-2.5-1c-0.7-0.7-1-1.5-1-2.5V3.6c0-1,0.3-1.8,1-2.5
	s1.5-1,2.5-1h32.9c1,0,1.8,0.3,2.5,1S40,2.6,40,3.6z"/>
</svg>
