<?xml version="1.0" encoding="utf-8"?>
<!-- Generator: Adobe Illustrator 20.1.0, SVG Export Plug-In . SVG Version: 6.00 Build 0)  -->
<svg version="1.1" id="Layer_1" xmlns="http://www.w3.org/2000/svg" xmlns:xlink="http://www.w3.org/1999/xlink" x="0px" y="0px"
	 viewBox="0 0 40 40" style="enable-background:new 0 0 40 40;" xml:space="preserve">
<path d="M40,17.3v5.5c0,0.8-0.3,1.4-0.8,1.9c-0.5,0.5-1.2,0.8-1.9,0.8H25.5v11.8c0,0.8-0.3,1.4-0.8,1.9c-0.5,0.5-1.2,0.8-1.9,0.8
	h-5.5c-0.8,0-1.4-0.3-1.9-0.8c-0.5-0.5-0.8-1.2-0.8-1.9V25.5H2.7c-0.8,0-1.4-0.3-1.9-0.8C0.3,24.1,0,23.5,0,22.7v-5.5
	c0-0.8,0.3-1.4,0.8-1.9s1.2-0.8,1.9-0.8h11.8V2.7c0-0.8,0.3-1.4,0.8-1.9S16.5,0,17.3,0h5.5c0.8,0,1.4,0.3,1.9,0.8
	c0.5,0.5,0.8,1.2,0.8,1.9v11.8h11.8c0.8,0,1.4,0.3,1.9,0.8C39.7,15.9,40,16.5,40,17.3z"/>
</svg>
