<?xml version="1.0" encoding="utf-8"?>
<!-- Generator: Adobe Illustrator 20.1.0, SVG Export Plug-In . SVG Version: 6.00 Build 0)  -->
<svg version="1.1" id="Layer_1" xmlns="http://www.w3.org/2000/svg" xmlns:xlink="http://www.w3.org/1999/xlink" x="0px" y="0px"
	 viewBox="0 0 40 32.7" style="enable-background:new 0 0 40 32.7;" xml:space="preserve">
<path d="M16.3,30.2c0,0.1,0,0.2,0,0.5c0,0.3,0,0.5,0,0.7s0,0.4-0.1,0.6c0,0.2-0.1,0.4-0.3,0.5c-0.1,0.1-0.3,0.2-0.5,0.2H7.3
	c-2,0-3.8-0.7-5.2-2.2C0.7,29.1,0,27.3,0,25.3v-18c0-2,0.7-3.8,2.2-5.2S5.3,0,7.3,0h8.2c0.2,0,0.4,0.1,0.6,0.2
	c0.2,0.2,0.2,0.4,0.2,0.6c0,0.1,0,0.2,0,0.5s0,0.5,0,0.7s0,0.4-0.1,0.6c0,0.2-0.1,0.4-0.3,0.5c-0.1,0.1-0.3,0.2-0.5,0.2H7.3
	c-1.1,0-2.1,0.4-2.9,1.2S3.3,6.2,3.3,7.3v18c0,1.1,0.4,2.1,1.2,2.9c0.8,0.8,1.8,1.2,2.9,1.2h7.3H15h0.3c0,0,0.1,0,0.3,0
	c0.2,0,0.3,0,0.3,0.1c0,0,0.1,0.1,0.2,0.1c0.1,0.1,0.2,0.1,0.2,0.2S16.3,30.1,16.3,30.2z M40,16.3c0,0.4-0.2,0.8-0.5,1.1L25.6,31.4
	c-0.3,0.3-0.7,0.5-1.1,0.5s-0.8-0.2-1.1-0.5s-0.5-0.7-0.5-1.1v-7.3H11.4c-0.4,0-0.8-0.2-1.1-0.5C10,22,9.8,21.7,9.8,21.2v-9.8
	c0-0.4,0.2-0.8,0.5-1.1c0.3-0.3,0.7-0.5,1.1-0.5h11.4V2.4c0-0.4,0.2-0.8,0.5-1.1s0.7-0.5,1.1-0.5s0.8,0.2,1.1,0.5l13.9,13.9
	C39.8,15.5,40,15.9,40,16.3z"/>
</svg>
