<?xml version="1.0" encoding="utf-8"?>
<!-- Generator: Adobe Illustrator 20.1.0, SVG Export Plug-In . SVG Version: 6.00 Build 0)  -->
<svg version="1.1" id="Layer_1" xmlns="http://www.w3.org/2000/svg" xmlns:xlink="http://www.w3.org/1999/xlink" x="0px" y="0px"
	 viewBox="0 0 40 31.4" style="enable-background:new 0 0 40 31.4;" xml:space="preserve">
<path d="M15.7,2.9c-2.3,0-4.4,0.4-6.4,1.2S5.8,5.8,4.6,7.2s-1.8,2.7-1.8,4.3c0,1.2,0.4,2.4,1.2,3.5s1.9,2.1,3.3,2.9l2.2,1.3L8.8,21
	c0.5-0.3,1-0.6,1.4-0.9l1-0.7l1.2,0.2c1.2,0.2,2.3,0.3,3.4,0.3c2.3,0,4.4-0.4,6.4-1.2c2-0.8,3.6-1.8,4.7-3.1s1.8-2.7,1.8-4.3
	S28,8.5,26.8,7.2S24.1,4.8,22.1,4S18,2.9,15.7,2.9z M15.7,0c2.8,0,5.5,0.5,7.9,1.5s4.3,2.4,5.7,4.2s2.1,3.7,2.1,5.7s-0.7,4-2.1,5.7
	s-3.3,3.1-5.7,4.2s-5,1.5-7.9,1.5c-1.3,0-2.6-0.1-3.9-0.4c-1.8,1.3-3.9,2.3-6.2,2.9c-0.5,0.1-1.2,0.3-1.9,0.4H3.6
	c-0.2,0-0.3-0.1-0.5-0.2c-0.1-0.1-0.2-0.3-0.3-0.5c0,0,0-0.1,0-0.1s0-0.1,0-0.1c0,0,0-0.1,0-0.1L3,24.5c0,0,0,0,0.1-0.1
	c0.1-0.1,0.1-0.1,0.1-0.1c0,0,0,0,0.1-0.1c0.1-0.1,0.1-0.1,0.1-0.1c0.1-0.1,0.2-0.3,0.5-0.6s0.5-0.5,0.6-0.7s0.3-0.4,0.5-0.6
	c0.2-0.3,0.4-0.6,0.6-0.9c0.2-0.3,0.3-0.6,0.5-1c-1.8-1.1-3.3-2.4-4.4-4S0,13.2,0,11.4c0-2.1,0.7-4,2.1-5.7s3.3-3.1,5.7-4.2
	S12.9,0,15.7,0z M34.1,26.1c0.1,0.4,0.3,0.7,0.5,1c0.2,0.3,0.3,0.6,0.6,0.9c0.2,0.3,0.4,0.5,0.5,0.6s0.3,0.4,0.6,0.7
	s0.4,0.5,0.5,0.6c0,0,0,0,0.1,0.1s0.1,0.1,0.1,0.1c0,0,0.1,0.1,0.1,0.1s0.1,0.1,0.1,0.1l0.1,0.1c0,0,0,0,0,0.1c0,0.1,0,0.1,0,0.1
	c0,0,0,0.1,0,0.1c0,0.2-0.1,0.4-0.3,0.5c-0.1,0.1-0.3,0.2-0.5,0.2c-0.7-0.1-1.4-0.2-1.9-0.4c-2.3-0.6-4.4-1.5-6.2-2.9
	c-1.3,0.2-2.6,0.4-3.9,0.4c-4,0-7.5-1-10.5-2.9c0.9,0.1,1.5,0.1,2,0.1c2.4,0,4.7-0.3,6.9-1s4.2-1.6,5.9-2.9c1.9-1.4,3.3-2.9,4.3-4.7
	c1-1.8,1.5-3.7,1.5-5.7c0-1.1-0.2-2.3-0.5-3.4c1.9,1.1,3.4,2.4,4.6,4c1.1,1.6,1.7,3.3,1.7,5.1c0,1.8-0.5,3.5-1.6,5
	C37.4,23.7,35.9,25,34.1,26.1z"/>
</svg>
