<?xml version="1.0" encoding="utf-8"?>
<!-- Generator: Adobe Illustrator 20.1.0, SVG Export Plug-In . SVG Version: 6.00 Build 0)  -->
<svg version="1.1" id="Layer_1" xmlns="http://www.w3.org/2000/svg" xmlns:xlink="http://www.w3.org/1999/xlink" x="0px" y="0px"
	 viewBox="0 0 40 40" style="enable-background:new 0 0 40 40;" xml:space="preserve">
<path d="M27.7,16.9c0-3-1.1-5.5-3.2-7.6s-4.6-3.2-7.6-3.2s-5.5,1.1-7.6,3.2S6.2,14,6.2,16.9s1.1,5.5,3.2,7.6s4.6,3.2,7.6,3.2
	s5.5-1.1,7.6-3.2S27.7,19.9,27.7,16.9z M40,36.9c0,0.8-0.3,1.6-0.9,2.2c-0.6,0.6-1.3,0.9-2.2,0.9c-0.9,0-1.6-0.3-2.2-0.9l-8.2-8.2
	c-2.9,2-6.1,3-9.6,3c-2.3,0-4.5-0.4-6.6-1.3s-3.9-2.1-5.4-3.6s-2.7-3.3-3.6-5.4S0,19.2,0,16.9s0.4-4.5,1.3-6.6s2.1-3.9,3.6-5.4
	s3.3-2.7,5.4-3.6S14.6,0,16.9,0s4.5,0.4,6.6,1.3s3.9,2.1,5.4,3.6s2.7,3.3,3.6,5.4s1.3,4.3,1.3,6.6c0,3.5-1,6.7-3,9.6l8.2,8.2
	C39.7,35.4,40,36.1,40,36.9z"/>
</svg>
