<?xml version="1.0" encoding="utf-8"?>
<!-- Generator: Adobe Illustrator 20.1.0, SVG Export Plug-In . SVG Version: 6.00 Build 0)  -->
<svg version="1.1" id="Layer_1" xmlns="http://www.w3.org/2000/svg" xmlns:xlink="http://www.w3.org/1999/xlink" x="0px" y="0px"
	 viewBox="0 0 40 40" style="enable-background:new 0 0 40 40;" xml:space="preserve">
<path d="M30.5,24.3c0-0.9-0.2-1.7-0.5-2.4c-0.3-0.7-0.8-1.3-1.3-1.8s-1.1-0.9-1.9-1.3s-1.5-0.7-2.1-0.9c-0.7-0.2-1.4-0.4-2.3-0.6
	l-2.7-0.6c-0.5-0.1-0.9-0.2-1.1-0.3s-0.5-0.2-0.9-0.3c-0.4-0.1-0.6-0.3-0.8-0.4c-0.2-0.1-0.3-0.3-0.4-0.5c-0.1-0.2-0.2-0.5-0.2-0.8
	c0-1.3,1.3-2,3.8-2c0.7,0,1.4,0.1,2,0.3c0.6,0.2,1.1,0.5,1.4,0.7c0.3,0.3,0.7,0.6,1,0.9c0.3,0.3,0.7,0.5,1,0.8s0.8,0.3,1.3,0.3
	c0.8,0,1.5-0.3,2-0.8c0.5-0.6,0.7-1.2,0.7-2c0-1-0.5-1.8-1.5-2.6s-2.2-1.4-3.7-1.8c-1.5-0.4-3.1-0.6-4.7-0.6c-1.2,0-2.3,0.1-3.4,0.4
	S13.9,8.8,13,9.3s-1.7,1.3-2.3,2.3s-0.9,2.1-0.9,3.3c0,1.1,0.2,2,0.5,2.8c0.3,0.8,0.8,1.4,1.5,2c0.6,0.5,1.3,0.9,2.1,1.3
	c0.7,0.3,1.6,0.6,2.7,0.8l3.8,0.9c1.6,0.4,2.5,0.7,2.9,0.9c0.6,0.3,0.8,0.9,0.8,1.6c0,0.7-0.3,1.2-1,1.7c-0.7,0.4-1.6,0.7-2.7,0.7
	c-0.9,0-1.7-0.1-2.4-0.4s-1.3-0.6-1.7-1S15.4,25.4,15,25c-0.4-0.4-0.8-0.7-1.2-1s-0.9-0.4-1.4-0.4c-0.9,0-1.5,0.3-2,0.8
	c-0.4,0.5-0.7,1.2-0.7,2c0,1.6,1.1,3,3.2,4.1s4.6,1.7,7.6,1.7c1.3,0,2.5-0.2,3.6-0.5c1.2-0.3,2.2-0.8,3.2-1.4c1-0.6,1.7-1.4,2.3-2.4
	S30.5,25.6,30.5,24.3z M40,30c0,2.8-1,5.1-2.9,7.1S32.8,40,30,40c-2.3,0-4.3-0.7-6.1-2.1c-1.3,0.3-2.6,0.4-3.9,0.4
	c-2.5,0-4.9-0.5-7.1-1.4c-2.3-1-4.2-2.3-5.9-3.9c-1.6-1.6-2.9-3.6-3.9-5.9S1.7,22.5,1.7,20c0-1.3,0.1-2.6,0.4-3.9
	C0.7,14.3,0,12.3,0,10c0-2.8,1-5.1,2.9-7.1S7.2,0,10,0c2.3,0,4.3,0.7,6.1,2.1c1.3-0.3,2.6-0.4,3.9-0.4c2.5,0,4.9,0.5,7.1,1.4
	S31.3,5.4,33,7c1.6,1.6,2.9,3.6,3.9,5.9c1,2.3,1.4,4.6,1.4,7.1c0,1.3-0.1,2.6-0.4,3.9C39.3,25.7,40,27.7,40,30z"/>
</svg>
