<?xml version="1.0" encoding="utf-8"?>
<!-- Generator: Adobe Illustrator 20.1.0, SVG Export Plug-In . SVG Version: 6.00 Build 0)  -->
<svg version="1.1" id="Слой_1" xmlns="http://www.w3.org/2000/svg" xmlns:xlink="http://www.w3.org/1999/xlink" x="0px" y="0px"
	 viewBox="0 0 40 40" style="enable-background:new 0 0 40 40;" xml:space="preserve">
<path d="M39.4,0.2c0.5,0.4,0.7,0.8,0.6,1.4L34.3,36c-0.1,0.4-0.3,0.8-0.7,1c-0.2,0.1-0.4,0.2-0.7,0.2c-0.2,0-0.3,0-0.5-0.1
	l-10.1-4.1l-5.4,6.6c-0.3,0.3-0.6,0.5-1.1,0.5c-0.2,0-0.4,0-0.5-0.1c-0.3-0.1-0.5-0.3-0.7-0.5c-0.2-0.2-0.3-0.5-0.3-0.8v-7.8
	L33.6,7.1L9.7,27.8l-8.8-3.6C0.3,24,0,23.6,0,22.9c0-0.6,0.2-1,0.7-1.3L37.9,0.2C38.1,0.1,38.3,0,38.6,0C38.9,0,39.1,0.1,39.4,0.2z"
	/>
</svg>
