<?xml version="1.0" encoding="utf-8"?>
<!-- Generator: Adobe Illustrator 20.1.0, SVG Export Plug-In . SVG Version: 6.00 Build 0)  -->
<svg version="1.1" id="Layer_1" xmlns="http://www.w3.org/2000/svg" xmlns:xlink="http://www.w3.org/1999/xlink" x="0px" y="0px"
	 viewBox="0 0 40 32.5" style="enable-background:new 0 0 40 32.5;" xml:space="preserve">
<path d="M40,3.9c-1.1,1.7-2.5,3.1-4.1,4.2c0,0.2,0,0.6,0,1.1c0,2.2-0.3,4.4-1,6.6c-0.6,2.2-1.6,4.3-2.9,6.3c-1.3,2-2.9,3.8-4.7,5.3
	s-4,2.8-6.5,3.7s-5.3,1.4-8.2,1.4C8,32.5,3.8,31.3,0,28.8c0.6,0.1,1.3,0.1,2,0.1c3.8,0,7.2-1.2,10.2-3.5c-1.8,0-3.4-0.6-4.8-1.6
	c-1.4-1.1-2.4-2.4-2.9-4c0.6,0.1,1.1,0.1,1.5,0.1c0.7,0,1.4-0.1,2.2-0.3c-1.9-0.4-3.5-1.3-4.7-2.8s-1.9-3.2-1.9-5.2v-0.1
	c1.2,0.6,2.4,1,3.7,1c-1.1-0.7-2-1.7-2.7-2.9s-1-2.5-1-3.9c0-1.5,0.4-2.9,1.1-4.1C4.8,4,7.3,6,10.3,7.6s6.1,2.4,9.4,2.5
	c-0.1-0.6-0.2-1.3-0.2-1.9c0-2.3,0.8-4.2,2.4-5.8C23.5,0.8,25.4,0,27.7,0c2.4,0,4.4,0.9,6,2.6c1.8-0.4,3.6-1,5.2-2
	c-0.6,1.9-1.8,3.5-3.6,4.5C36.9,5,38.4,4.5,40,3.9z"/>
</svg>
