<?xml version="1.0" encoding="utf-8"?>
<!-- Generator: Adobe Illustrator 20.1.0, SVG Export Plug-In . SVG Version: 6.00 Build 0)  -->
<svg version="1.1" id="Layer_1" xmlns="http://www.w3.org/2000/svg" xmlns:xlink="http://www.w3.org/1999/xlink" x="0px" y="0px"
	 viewBox="0 0 40 43.6" style="enable-background:new 0 0 40 43.6;" xml:space="preserve">
<path d="M40,36.3c0,2.3-0.7,4.1-2.1,5.4c-1.4,1.3-3.2,2-5.5,2H7.6c-2.3,0-4.1-0.7-5.5-2C0.7,40.3,0,38.6,0,36.3c0-1,0-2,0.1-2.9
	c0.1-1,0.2-2,0.4-3.1c0.2-1.1,0.4-2.1,0.8-3.1s0.7-1.9,1.2-2.8c0.5-0.9,1.1-1.7,1.8-2.3s1.5-1.1,2.4-1.5s2-0.6,3.2-0.6
	c0.2,0,0.6,0.2,1.2,0.6c0.6,0.4,1.3,0.9,2.1,1.4c0.8,0.5,1.8,1,3.1,1.4s2.5,0.6,3.8,0.6s2.5-0.2,3.8-0.6s2.3-0.9,3.1-1.4
	c0.8-0.5,1.5-1,2.1-1.4c0.6-0.4,1-0.6,1.2-0.6c1.2,0,2.2,0.2,3.2,0.6c1,0.4,1.8,0.9,2.4,1.5c0.7,0.6,1.3,1.4,1.8,2.3
	c0.5,0.9,0.9,1.8,1.2,2.8s0.6,2,0.8,3.1c0.2,1.1,0.3,2.1,0.4,3.1C40,34.3,40,35.3,40,36.3z M30.9,10.9c0,3-1.1,5.6-3.2,7.7
	S23,21.8,20,21.8s-5.6-1.1-7.7-3.2s-3.2-4.7-3.2-7.7s1.1-5.6,3.2-7.7S17,0,20,0s5.6,1.1,7.7,3.2S30.9,7.9,30.9,10.9z"/>
</svg>
